<svg width="124" height="20" viewBox="0 0 124 20" fill="none" xmlns="http://www.w3.org/2000/svg">
<g clip-path="url(#clip0_1070_5052)">
<rect width="20" height="20" rx="10" fill="url(#paint0_linear_1070_5052)"/>
<g filter="url(#filter0_f_1070_5052)">
<circle cx="6.30367" cy="17.4899" r="7.04048" fill="#32E6B9" fill-opacity="0.4"/>
</g>
<g filter="url(#filter1_f_1070_5052)">
<circle cx="16.6701" cy="21.8092" r="6.43522" fill="#32E6B9"/>
</g>
<path d="M15.2962 1.56379C15.4923 1.38793 15.5045 1.38153 15.6483 1.3729C15.8812 1.35596 16.0947 1.46793 16.4579 1.79857C17.3065 2.56982 18.4879 4.15522 19.2226 5.50904L19.5065 6.03408L19.907 6.23361C20.294 6.42916 20.9291 6.83028 21.1944 7.04538C21.3142 7.1445 21.3316 7.14679 21.4561 7.09836C22.0189 6.87918 22.8251 7.16943 23.5362 7.8516C24.1763 8.46505 24.7893 9.51304 25.0242 10.3878C25.0585 10.5286 25.1042 10.8317 25.1208 11.0571C25.1744 11.8486 24.9199 12.4806 24.4311 12.7668C24.3315 12.8243 24.3247 12.8405 24.3275 13.0893C24.35 14.2747 24.0306 15.4578 23.3887 16.6117C22.6641 17.9073 21.3742 19.2477 19.6282 20.5104C18.6906 21.1927 16.472 22.485 15.4688 22.9389C13.0659 24.0207 11.1389 24.4357 9.46567 24.2307C8.46779 24.1097 7.33866 23.72 6.67033 23.2679C6.49439 23.1463 6.46636 23.1395 6.33198 23.178C5.61649 23.3835 4.67927 22.9607 3.88318 22.0772C3.56573 21.724 3.05317 20.8568 2.88691 20.3926C2.50259 19.3063 2.5789 18.3253 3.09083 17.7399C3.22283 17.5894 3.22677 17.583 3.19789 17.3296C3.15021 16.9147 3.12908 16.3008 3.15085 15.9044L3.16797 15.5337L2.61198 14.5511C1.75112 13.0194 1.20431 11.7323 0.993364 10.7496C0.882147 10.2113 0.888755 9.97199 1.02533 9.79517C1.10858 9.68836 1.3826 9.57806 1.71174 9.51728C2.54047 9.37193 4.34715 9.50352 6.35722 9.8584L6.56633 9.89442L7.02542 9.48841C7.78719 8.81363 8.29342 8.43518 9.22644 7.85342C10.1989 7.24502 11.2963 6.74489 12.5321 6.34857L12.9287 6.22108L13.1464 5.64886C13.9269 3.58854 14.7263 2.06908 15.2962 1.56379ZM8.75899 12.1219C7.87702 12.6311 7.43578 12.8857 7.11171 13.1711C5.79932 14.3267 5.3087 16.1577 5.86743 17.8148C6.00545 18.2238 6.26036 18.6652 6.76944 19.547C7.27858 20.4288 7.53327 20.8702 7.81861 21.1943C8.97427 22.5065 10.8049 22.9964 12.4618 22.4377C12.8709 22.2997 13.3121 22.0449 14.194 21.5357L19.2684 18.606C20.1504 18.0968 20.5916 17.8422 20.9157 17.5568C22.2279 16.4013 22.7181 14.5713 22.1596 12.9145C22.0217 12.5054 21.7676 12.0636 21.2585 11.1818C20.7493 10.2999 20.4937 9.85903 20.2084 9.53497C19.0528 8.22262 17.2226 7.73156 15.5656 8.29021C15.1564 8.42818 14.7154 8.683 13.8334 9.19222L8.75899 12.1219Z" fill="url(#paint1_linear_1070_5052)"/>
<rect x="9.2478" y="15.6673" width="2.00452" height="4.16323" rx="1.00226" transform="rotate(-30 9.2478 15.6673)" fill="white"/>
<rect x="14.656" y="12.5449" width="2.00452" height="4.16323" rx="1.00226" transform="rotate(-30 14.656 12.5449)" fill="white"/>
</g>
<path d="M34.381 8.27261C33.7225 7.50796 32.9091 7.12563 31.9407 7.12563C31.5147 7.12563 31.1177 7.19933 30.7497 7.34673C30.3914 7.49414 30.0815 7.69682 29.8201 7.95477C29.5586 8.20352 29.3504 8.50293 29.1955 8.85302C29.0503 9.2031 28.9776 9.58082 28.9776 9.98618C28.9776 10.4008 29.0503 10.7831 29.1955 11.1332C29.3504 11.4832 29.5586 11.7873 29.8201 12.0452C30.0912 12.3032 30.4059 12.5059 30.7642 12.6533C31.1225 12.8007 31.5098 12.8744 31.9262 12.8744C32.8365 12.8744 33.6547 12.5059 34.381 11.7688V14.9749L34.0905 15.0716C33.6547 15.219 33.248 15.325 32.8703 15.3894C32.4927 15.4631 32.1199 15.5 31.7519 15.5C30.9966 15.5 30.2704 15.3664 29.5732 15.0992C28.8856 14.8229 28.2756 14.4405 27.743 13.9523C27.2201 13.4548 26.7989 12.8698 26.4793 12.1972C26.1598 11.5155 26 10.7739 26 9.97236C26 9.17085 26.1549 8.43844 26.4648 7.77513C26.7844 7.1026 27.2056 6.5268 27.7285 6.04774C28.2611 5.55946 28.876 5.18174 29.5732 4.91457C30.2704 4.63819 31.0015 4.5 31.7664 4.5C32.2022 4.5 32.6283 4.54606 33.0446 4.63819C33.4707 4.72111 33.9162 4.85469 34.381 5.03894V8.27261Z" fill="black"/>
<path d="M38.2069 10C38.2069 10.4146 38.2741 10.7969 38.4084 11.147C38.5427 11.4971 38.7244 11.8011 38.9534 12.059C39.1825 12.317 39.4472 12.5197 39.7474 12.6671C40.0554 12.8053 40.3793 12.8744 40.719 12.8744C41.0587 12.8744 41.3786 12.8053 41.6788 12.6671C41.9869 12.5197 42.2555 12.317 42.4845 12.059C42.7215 11.8011 42.9072 11.4971 43.0415 11.147C43.1758 10.7969 43.2429 10.4146 43.2429 10C43.2429 9.58543 43.1758 9.2031 43.0415 8.85302C42.9072 8.50293 42.7215 8.19891 42.4845 7.94095C42.2555 7.683 41.9869 7.48493 41.6788 7.34673C41.3786 7.19933 41.0587 7.12563 40.719 7.12563C40.3793 7.12563 40.0554 7.19933 39.7474 7.34673C39.4472 7.48493 39.1825 7.683 38.9534 7.94095C38.7244 8.19891 38.5427 8.50293 38.4084 8.85302C38.2741 9.2031 38.2069 9.58543 38.2069 10ZM35.7778 10C35.7778 9.22613 35.9003 8.50754 36.1452 7.84422C36.39 7.17169 36.7297 6.58668 37.1642 6.0892C37.5987 5.59171 38.1161 5.20477 38.7165 4.92839C39.3247 4.6428 39.9922 4.5 40.719 4.5C41.4379 4.5 42.1014 4.6428 42.7097 4.92839C43.3179 5.20477 43.8393 5.59171 44.2738 6.0892C44.7162 6.58668 45.0598 7.17169 45.3047 7.84422C45.5496 8.50754 45.672 9.22613 45.672 10C45.672 10.7739 45.5496 11.4971 45.3047 12.1696C45.0598 12.8329 44.7162 13.4133 44.2738 13.9108C43.8393 14.4083 43.3179 14.7998 42.7097 15.0854C42.1014 15.3618 41.4379 15.5 40.719 15.5C39.9922 15.5 39.3247 15.3618 38.7165 15.0854C38.1161 14.7998 37.5987 14.4083 37.1642 13.9108C36.7297 13.4133 36.39 12.8329 36.1452 12.1696C35.9003 11.4971 35.7778 10.7739 35.7778 10Z" fill="black"/>
<path d="M49.8301 13.0782H50.4641C50.943 13.0782 51.3704 13.0004 51.7461 12.8448C52.1217 12.6892 52.4364 12.4752 52.69 12.2029C52.9529 11.9306 53.1502 11.6096 53.2817 11.2401C53.4225 10.8607 53.493 10.4474 53.493 10C53.493 9.56233 53.4225 9.15385 53.2817 8.77454C53.1408 8.39523 52.9388 8.06941 52.6759 7.79708C52.4223 7.52476 52.1077 7.31079 51.732 7.15517C51.3563 6.99956 50.9337 6.92175 50.4641 6.92175H49.8301V13.0782ZM47.0688 4.5H51.1544C51.8776 4.5 52.5538 4.65075 53.183 4.95226C53.8217 5.25376 54.3758 5.65738 54.8454 6.16313C55.3244 6.65915 55.7001 7.24271 55.9725 7.91379C56.2448 8.57515 56.381 9.27056 56.381 10C56.381 10.7197 56.2448 11.4151 55.9725 12.0862C55.7095 12.7476 55.3385 13.3311 54.8595 13.8369C54.3899 14.3426 53.8358 14.7462 53.1971 15.0477C52.5679 15.3492 51.8869 15.5 51.1544 15.5H47.0688V4.5Z" fill="black"/>
<path d="M63.9684 6.92175H60.6061V8.75995V11.1817V13.0782H63.9684V15.5H57.7778V4.5H63.9684V6.92175Z" fill="black"/>
<path d="M63.9431 8.63228H67.0899V10.9754H63.9431V8.63228Z" fill="black"/>
<path d="M71.3436 13.2825H71.9704C72.6894 13.2825 73.2044 13.1901 73.5154 13.0053C73.8263 12.8205 73.9818 12.5239 73.9818 12.1154C73.9818 11.7069 73.8263 11.4103 73.5154 11.2255C73.2044 11.0407 72.6894 10.9483 71.9704 10.9483H71.3436V13.2825ZM71.3436 8.8183H71.8683C72.7623 8.8183 73.2093 8.46331 73.2093 7.75332C73.2093 7.04333 72.7623 6.68833 71.8683 6.68833H71.3436V8.8183ZM68.4868 4.5H72.7429C73.7535 4.5 74.5211 4.74315 75.0458 5.22944C75.5705 5.71574 75.8329 6.416 75.8329 7.33024C75.8329 7.88462 75.7309 8.3466 75.5268 8.71618C75.3325 9.07604 75.0312 9.3824 74.6231 9.63528C75.0312 9.71309 75.3762 9.83466 75.658 10C75.9495 10.1556 76.1827 10.3501 76.3576 10.5836C76.5422 10.817 76.6734 11.0796 76.7512 11.3714C76.8289 11.6631 76.8678 11.9744 76.8678 12.305C76.8678 12.8205 76.7755 13.2776 76.5908 13.6764C76.4159 14.0752 76.1633 14.4107 75.8329 14.683C75.5122 14.9553 75.1187 15.1596 74.6523 15.2958C74.1859 15.4319 73.6611 15.5 73.0781 15.5H68.4868V4.5Z" fill="black"/>
<path d="M80.5771 4.5V10.3194C80.5771 10.6316 80.5866 10.9533 80.6055 11.2845C80.6338 11.6062 80.7047 11.8996 80.8181 12.1645C80.9409 12.4295 81.1299 12.6471 81.385 12.8174C81.6402 12.9783 81.9992 13.0587 82.4622 13.0587C82.9253 13.0587 83.2796 12.9783 83.5253 12.8174C83.7804 12.6471 83.9694 12.4295 84.0922 12.1645C84.2151 11.8996 84.2859 11.6062 84.3048 11.2845C84.3332 10.9533 84.3474 10.6316 84.3474 10.3194V4.5L87.1112 4.5V10.7026C87.1112 12.368 86.7285 13.5839 85.9632 14.3503C85.2072 15.1168 84.0403 15.5 82.4622 15.5C80.8842 15.5 79.7125 15.1168 78.9471 14.3503C78.1818 13.5839 77.7991 12.368 77.7991 10.7026V4.5H80.5771Z" fill="black"/>
<path d="M91.5603 13.0782H92.1943C92.6733 13.0782 93.1006 13.0004 93.4763 12.8448C93.852 12.6892 94.1666 12.4752 94.4202 12.2029C94.6832 11.9306 94.8804 11.6096 95.0119 11.2401C95.1528 10.8607 95.2232 10.4474 95.2232 10C95.2232 9.56233 95.1528 9.15385 95.0119 8.77454C94.871 8.39523 94.6691 8.06941 94.4061 7.79708C94.1525 7.52476 93.8379 7.31079 93.4622 7.15517C93.0865 6.99956 92.6639 6.92175 92.1943 6.92175H91.5603V13.0782ZM88.7991 4.5H92.8846C93.6078 4.5 94.284 4.65075 94.9133 4.95226C95.5519 5.25376 96.1061 5.65738 96.5757 6.16313C97.0546 6.65915 97.4303 7.24271 97.7027 7.91379C97.9751 8.57515 98.1112 9.27056 98.1112 10C98.1112 10.7197 97.9751 11.4151 97.7027 12.0862C97.4397 12.7476 97.0687 13.3311 96.5897 13.8369C96.1201 14.3426 95.566 14.7462 94.9274 15.0477C94.2981 15.3492 93.6172 15.5 92.8846 15.5H88.7991V4.5Z" fill="black"/>
<path d="M102.269 13.0782H102.903C103.382 13.0782 103.809 13.0004 104.185 12.8448C104.561 12.6892 104.875 12.4752 105.129 12.2029C105.392 11.9306 105.589 11.6096 105.721 11.2401C105.862 10.8607 105.932 10.4474 105.932 10C105.932 9.56233 105.862 9.15385 105.721 8.77454C105.58 8.39523 105.378 8.06941 105.115 7.79708C104.861 7.52476 104.547 7.31079 104.171 7.15517C103.795 6.99956 103.373 6.92175 102.903 6.92175H102.269V13.0782ZM99.5078 4.5H103.593C104.317 4.5 104.993 4.65075 105.622 4.95226C106.261 5.25376 106.815 5.65738 107.284 6.16313C107.763 6.65915 108.139 7.24271 108.411 7.91379C108.684 8.57515 108.82 9.27056 108.82 10C108.82 10.7197 108.684 11.4151 108.411 12.0862C108.148 12.7476 107.777 13.3311 107.298 13.8369C106.829 14.3426 106.275 14.7462 105.636 15.0477C105.007 15.3492 104.326 15.5 103.593 15.5H99.5078V4.5Z" fill="black"/>
<path d="M115.903 11.452L110.217 15.5L110.217 12.0556L113.205 9.99479L110.217 7.94875L110.217 4.50432L115.903 8.56698L117.651 10.0095L115.903 11.452Z" fill="black"/>
<rect x="117.582" y="12.4735" width="5.43939" height="2.94395" fill="black"/>
<path d="M102.709 4.5L102.709 15.5" stroke="black" stroke-width="0.0312537" stroke-dasharray="0.23 0.23"/>
<defs>
<filter id="filter0_f_1070_5052" x="-7.45804" y="3.72824" width="27.5235" height="27.5234" filterUnits="userSpaceOnUse" color-interpolation-filters="sRGB">
<feFlood flood-opacity="0" result="BackgroundImageFix"/>
<feBlend mode="normal" in="SourceGraphic" in2="BackgroundImageFix" result="shape"/>
<feGaussianBlur stdDeviation="3.36061" result="effect1_foregroundBlur_1070_5052"/>
</filter>
<filter id="filter1_f_1070_5052" x="4.73467" y="9.87377" width="23.8707" height="23.8708" filterUnits="userSpaceOnUse" color-interpolation-filters="sRGB">
<feFlood flood-opacity="0" result="BackgroundImageFix"/>
<feBlend mode="normal" in="SourceGraphic" in2="BackgroundImageFix" result="shape"/>
<feGaussianBlur stdDeviation="2.75009" result="effect1_foregroundBlur_1070_5052"/>
</filter>
<linearGradient id="paint0_linear_1070_5052" x1="10" y1="0" x2="10" y2="20" gradientUnits="userSpaceOnUse">
<stop stop-color="#6C4DFF"/>
<stop offset="1" stop-color="#583ED3"/>
</linearGradient>
<linearGradient id="paint1_linear_1070_5052" x1="8.33162" y1="5.53968" x2="17.6877" y2="21.7449" gradientUnits="userSpaceOnUse">
<stop stop-color="white" stop-opacity="0.8"/>
<stop offset="0.437689" stop-color="white"/>
</linearGradient>
<clipPath id="clip0_1070_5052">
<rect width="20" height="20" rx="10" fill="white"/>
</clipPath>
</defs>
</svg>
